<svg xmlns="http://www.w3.org/2000/svg" viewBox="0 0 57 57"><path d="M32.579,9.214c7.61,0,8.511.029,11.516.166a15.775,15.775,0,0,1,5.292.981A9.439,9.439,0,0,1,54.8,15.77a15.774,15.774,0,0,1,.981,5.292c.137,3.005.166,3.907.166,11.516s-.029,8.511-.166,11.516a15.775,15.775,0,0,1-.981,5.292A9.438,9.438,0,0,1,49.387,54.8a15.775,15.775,0,0,1-5.292.981c-3,.137-3.906.166-11.516.166s-8.512-.029-11.516-.166A15.774,15.774,0,0,1,15.77,54.8a9.439,9.439,0,0,1-5.409-5.409A15.774,15.774,0,0,1,9.38,44.1c-.137-3.005-.166-3.907-.166-11.516s.029-8.511.166-11.516a15.774,15.774,0,0,1,.981-5.292,9.439,9.439,0,0,1,5.409-5.409,15.774,15.774,0,0,1,5.292-.981c3.005-.137,3.907-.166,11.516-.166m0-5.135c-7.74,0-8.711.033-11.75.172A20.919,20.919,0,0,0,13.91,5.575,14.573,14.573,0,0,0,5.575,13.91a20.919,20.919,0,0,0-1.325,6.918c-.139,3.04-.172,4.01-.172,11.75s.033,8.711.172,11.75a20.919,20.919,0,0,0,1.325,6.918,14.573,14.573,0,0,0,8.335,8.335,20.919,20.919,0,0,0,6.918,1.325c3.04.139,4.01.172,11.75.172s8.711-.033,11.75-.172a20.919,20.919,0,0,0,6.918-1.325,14.573,14.573,0,0,0,8.335-8.335,20.919,20.919,0,0,0,1.325-6.918c.139-3.04.172-4.01.172-11.75s-.033-8.711-.172-11.75a20.919,20.919,0,0,0-1.325-6.918,14.573,14.573,0,0,0-8.335-8.335,20.919,20.919,0,0,0-6.918-1.325c-3.04-.139-4.01-.172-11.75-.172Z" transform="translate(-4.079 -4.079)"/><path d="M141.27,126.635a14.635,14.635,0,1,0,14.635,14.635A14.635,14.635,0,0,0,141.27,126.635Zm0,24.135a9.5,9.5,0,1,1,9.5-9.5A9.5,9.5,0,0,1,141.27,150.77Z" transform="translate(-112.77 -112.77)"/><circle cx="3.42" cy="3.42" r="3.42" transform="translate(40.293 9.867)"/></svg>