<svg class="twitter_icon" xmlns="http://www.w3.org/2000/svg" viewBox="0 0 58.335 47.411"><path d="M811.386,2329.683c22.015,0,34.052-18.239,34.052-34.052,0-.519-.009-1.036-.034-1.548a24.37,24.37,0,0,0,5.971-6.2,23.889,23.889,0,0,1-6.874,1.884,12.017,12.017,0,0,0,5.264-6.62,24.006,24.006,0,0,1-7.6,2.9,11.981,11.981,0,0,0-20.4,10.916,33.981,33.981,0,0,1-24.669-12.5,11.978,11.978,0,0,0,3.706,15.978,11.887,11.887,0,0,1-5.422-1.5c0,.049,0,.1,0,.153a11.977,11.977,0,0,0,9.6,11.734,12.015,12.015,0,0,1-3.154.42,11.886,11.886,0,0,1-2.25-.216,11.979,11.979,0,0,0,11.181,8.313,24.02,24.02,0,0,1-14.865,5.122,24.269,24.269,0,0,1-2.854-.165,33.878,33.878,0,0,0,18.345,5.376" transform="translate(-793.041 -2282.272)"/></svg>